%TF.GenerationSoftware,KiCad,Pcbnew,9.0.7+1*%
%TF.CreationDate,2026-04-03T12:56:37+00:00*%
%TF.ProjectId,pcb_1,7063625f-312e-46b6-9963-61645f706362,rev?*%
%TF.SameCoordinates,Original*%
%TF.FileFunction,Legend,Top*%
%TF.FilePolarity,Positive*%
%FSLAX46Y46*%
G04 Gerber Fmt 4.6, Leading zero omitted, Abs format (unit mm)*
G04 Created by KiCad (PCBNEW 9.0.7+1) date 2026-04-03 12:56:37*
%MOMM*%
%LPD*%
G01*
G04 APERTURE LIST*
%ADD10C,0.300000*%
%ADD11C,0.150000*%
G04 APERTURE END LIST*
D10*
X122340225Y-92542425D02*
X122197368Y-92470996D01*
X122197368Y-92470996D02*
X121983082Y-92470996D01*
X121983082Y-92470996D02*
X121768796Y-92542425D01*
X121768796Y-92542425D02*
X121625939Y-92685282D01*
X121625939Y-92685282D02*
X121554510Y-92828139D01*
X121554510Y-92828139D02*
X121483082Y-93113853D01*
X121483082Y-93113853D02*
X121483082Y-93328139D01*
X121483082Y-93328139D02*
X121554510Y-93613853D01*
X121554510Y-93613853D02*
X121625939Y-93756710D01*
X121625939Y-93756710D02*
X121768796Y-93899568D01*
X121768796Y-93899568D02*
X121983082Y-93970996D01*
X121983082Y-93970996D02*
X122125939Y-93970996D01*
X122125939Y-93970996D02*
X122340225Y-93899568D01*
X122340225Y-93899568D02*
X122411653Y-93828139D01*
X122411653Y-93828139D02*
X122411653Y-93328139D01*
X122411653Y-93328139D02*
X122125939Y-93328139D01*
X123054510Y-93970996D02*
X123054510Y-92970996D01*
X123054510Y-92470996D02*
X122983082Y-92542425D01*
X122983082Y-92542425D02*
X123054510Y-92613853D01*
X123054510Y-92613853D02*
X123125939Y-92542425D01*
X123125939Y-92542425D02*
X123054510Y-92470996D01*
X123054510Y-92470996D02*
X123054510Y-92613853D01*
X123554511Y-92970996D02*
X124125939Y-92970996D01*
X123768796Y-92470996D02*
X123768796Y-93756710D01*
X123768796Y-93756710D02*
X123840225Y-93899568D01*
X123840225Y-93899568D02*
X123983082Y-93970996D01*
X123983082Y-93970996D02*
X124125939Y-93970996D01*
X124625939Y-93828139D02*
X124697368Y-93899568D01*
X124697368Y-93899568D02*
X124625939Y-93970996D01*
X124625939Y-93970996D02*
X124554511Y-93899568D01*
X124554511Y-93899568D02*
X124625939Y-93828139D01*
X124625939Y-93828139D02*
X124625939Y-93970996D01*
X124625939Y-93042425D02*
X124697368Y-93113853D01*
X124697368Y-93113853D02*
X124625939Y-93185282D01*
X124625939Y-93185282D02*
X124554511Y-93113853D01*
X124554511Y-93113853D02*
X124625939Y-93042425D01*
X124625939Y-93042425D02*
X124625939Y-93185282D01*
X127054511Y-93899568D02*
X126911654Y-93970996D01*
X126911654Y-93970996D02*
X126625940Y-93970996D01*
X126625940Y-93970996D02*
X126483082Y-93899568D01*
X126483082Y-93899568D02*
X126411654Y-93756710D01*
X126411654Y-93756710D02*
X126411654Y-93185282D01*
X126411654Y-93185282D02*
X126483082Y-93042425D01*
X126483082Y-93042425D02*
X126625940Y-92970996D01*
X126625940Y-92970996D02*
X126911654Y-92970996D01*
X126911654Y-92970996D02*
X127054511Y-93042425D01*
X127054511Y-93042425D02*
X127125940Y-93185282D01*
X127125940Y-93185282D02*
X127125940Y-93328139D01*
X127125940Y-93328139D02*
X126411654Y-93470996D01*
X128411654Y-93899568D02*
X128268796Y-93970996D01*
X128268796Y-93970996D02*
X127983082Y-93970996D01*
X127983082Y-93970996D02*
X127840225Y-93899568D01*
X127840225Y-93899568D02*
X127768796Y-93828139D01*
X127768796Y-93828139D02*
X127697368Y-93685282D01*
X127697368Y-93685282D02*
X127697368Y-93256710D01*
X127697368Y-93256710D02*
X127768796Y-93113853D01*
X127768796Y-93113853D02*
X127840225Y-93042425D01*
X127840225Y-93042425D02*
X127983082Y-92970996D01*
X127983082Y-92970996D02*
X128268796Y-92970996D01*
X128268796Y-92970996D02*
X128411654Y-93042425D01*
X129625939Y-93899568D02*
X129483082Y-93970996D01*
X129483082Y-93970996D02*
X129197368Y-93970996D01*
X129197368Y-93970996D02*
X129054510Y-93899568D01*
X129054510Y-93899568D02*
X128983082Y-93756710D01*
X128983082Y-93756710D02*
X128983082Y-93185282D01*
X128983082Y-93185282D02*
X129054510Y-93042425D01*
X129054510Y-93042425D02*
X129197368Y-92970996D01*
X129197368Y-92970996D02*
X129483082Y-92970996D01*
X129483082Y-92970996D02*
X129625939Y-93042425D01*
X129625939Y-93042425D02*
X129697368Y-93185282D01*
X129697368Y-93185282D02*
X129697368Y-93328139D01*
X129697368Y-93328139D02*
X128983082Y-93470996D01*
X130983082Y-92470996D02*
X130697367Y-92470996D01*
X130697367Y-92470996D02*
X130554510Y-92542425D01*
X130554510Y-92542425D02*
X130483082Y-92613853D01*
X130483082Y-92613853D02*
X130340224Y-92828139D01*
X130340224Y-92828139D02*
X130268796Y-93113853D01*
X130268796Y-93113853D02*
X130268796Y-93685282D01*
X130268796Y-93685282D02*
X130340224Y-93828139D01*
X130340224Y-93828139D02*
X130411653Y-93899568D01*
X130411653Y-93899568D02*
X130554510Y-93970996D01*
X130554510Y-93970996D02*
X130840224Y-93970996D01*
X130840224Y-93970996D02*
X130983082Y-93899568D01*
X130983082Y-93899568D02*
X131054510Y-93828139D01*
X131054510Y-93828139D02*
X131125939Y-93685282D01*
X131125939Y-93685282D02*
X131125939Y-93328139D01*
X131125939Y-93328139D02*
X131054510Y-93185282D01*
X131054510Y-93185282D02*
X130983082Y-93113853D01*
X130983082Y-93113853D02*
X130840224Y-93042425D01*
X130840224Y-93042425D02*
X130554510Y-93042425D01*
X130554510Y-93042425D02*
X130411653Y-93113853D01*
X130411653Y-93113853D02*
X130340224Y-93185282D01*
X130340224Y-93185282D02*
X130268796Y-93328139D01*
X132411653Y-92970996D02*
X132411653Y-93970996D01*
X132054510Y-92399568D02*
X131697367Y-93470996D01*
X131697367Y-93470996D02*
X132625938Y-93470996D01*
X133840224Y-92470996D02*
X133554509Y-92470996D01*
X133554509Y-92470996D02*
X133411652Y-92542425D01*
X133411652Y-92542425D02*
X133340224Y-92613853D01*
X133340224Y-92613853D02*
X133197366Y-92828139D01*
X133197366Y-92828139D02*
X133125938Y-93113853D01*
X133125938Y-93113853D02*
X133125938Y-93685282D01*
X133125938Y-93685282D02*
X133197366Y-93828139D01*
X133197366Y-93828139D02*
X133268795Y-93899568D01*
X133268795Y-93899568D02*
X133411652Y-93970996D01*
X133411652Y-93970996D02*
X133697366Y-93970996D01*
X133697366Y-93970996D02*
X133840224Y-93899568D01*
X133840224Y-93899568D02*
X133911652Y-93828139D01*
X133911652Y-93828139D02*
X133983081Y-93685282D01*
X133983081Y-93685282D02*
X133983081Y-93328139D01*
X133983081Y-93328139D02*
X133911652Y-93185282D01*
X133911652Y-93185282D02*
X133840224Y-93113853D01*
X133840224Y-93113853D02*
X133697366Y-93042425D01*
X133697366Y-93042425D02*
X133411652Y-93042425D01*
X133411652Y-93042425D02*
X133268795Y-93113853D01*
X133268795Y-93113853D02*
X133197366Y-93185282D01*
X133197366Y-93185282D02*
X133125938Y-93328139D01*
X134483080Y-92470996D02*
X135411652Y-92470996D01*
X135411652Y-92470996D02*
X134911652Y-93042425D01*
X134911652Y-93042425D02*
X135125937Y-93042425D01*
X135125937Y-93042425D02*
X135268795Y-93113853D01*
X135268795Y-93113853D02*
X135340223Y-93185282D01*
X135340223Y-93185282D02*
X135411652Y-93328139D01*
X135411652Y-93328139D02*
X135411652Y-93685282D01*
X135411652Y-93685282D02*
X135340223Y-93828139D01*
X135340223Y-93828139D02*
X135268795Y-93899568D01*
X135268795Y-93899568D02*
X135125937Y-93970996D01*
X135125937Y-93970996D02*
X134697366Y-93970996D01*
X134697366Y-93970996D02*
X134554509Y-93899568D01*
X134554509Y-93899568D02*
X134483080Y-93828139D01*
X121340225Y-94885912D02*
X121840225Y-96385912D01*
X121840225Y-96385912D02*
X122340225Y-94885912D01*
X123411653Y-96314484D02*
X123268796Y-96385912D01*
X123268796Y-96385912D02*
X122983082Y-96385912D01*
X122983082Y-96385912D02*
X122840224Y-96314484D01*
X122840224Y-96314484D02*
X122768796Y-96171626D01*
X122768796Y-96171626D02*
X122768796Y-95600198D01*
X122768796Y-95600198D02*
X122840224Y-95457341D01*
X122840224Y-95457341D02*
X122983082Y-95385912D01*
X122983082Y-95385912D02*
X123268796Y-95385912D01*
X123268796Y-95385912D02*
X123411653Y-95457341D01*
X123411653Y-95457341D02*
X123483082Y-95600198D01*
X123483082Y-95600198D02*
X123483082Y-95743055D01*
X123483082Y-95743055D02*
X122768796Y-95885912D01*
X124125938Y-96385912D02*
X124125938Y-95385912D01*
X124125938Y-95671626D02*
X124197367Y-95528769D01*
X124197367Y-95528769D02*
X124268796Y-95457341D01*
X124268796Y-95457341D02*
X124411653Y-95385912D01*
X124411653Y-95385912D02*
X124554510Y-95385912D01*
X125054509Y-96243055D02*
X125125938Y-96314484D01*
X125125938Y-96314484D02*
X125054509Y-96385912D01*
X125054509Y-96385912D02*
X124983081Y-96314484D01*
X124983081Y-96314484D02*
X125054509Y-96243055D01*
X125054509Y-96243055D02*
X125054509Y-96385912D01*
X125054509Y-95457341D02*
X125125938Y-95528769D01*
X125125938Y-95528769D02*
X125054509Y-95600198D01*
X125054509Y-95600198D02*
X124983081Y-95528769D01*
X124983081Y-95528769D02*
X125054509Y-95457341D01*
X125054509Y-95457341D02*
X125054509Y-95600198D01*
X127483081Y-96314484D02*
X127340224Y-96385912D01*
X127340224Y-96385912D02*
X127054510Y-96385912D01*
X127054510Y-96385912D02*
X126911652Y-96314484D01*
X126911652Y-96314484D02*
X126840224Y-96171626D01*
X126840224Y-96171626D02*
X126840224Y-95600198D01*
X126840224Y-95600198D02*
X126911652Y-95457341D01*
X126911652Y-95457341D02*
X127054510Y-95385912D01*
X127054510Y-95385912D02*
X127340224Y-95385912D01*
X127340224Y-95385912D02*
X127483081Y-95457341D01*
X127483081Y-95457341D02*
X127554510Y-95600198D01*
X127554510Y-95600198D02*
X127554510Y-95743055D01*
X127554510Y-95743055D02*
X126840224Y-95885912D01*
X128840224Y-96314484D02*
X128697366Y-96385912D01*
X128697366Y-96385912D02*
X128411652Y-96385912D01*
X128411652Y-96385912D02*
X128268795Y-96314484D01*
X128268795Y-96314484D02*
X128197366Y-96243055D01*
X128197366Y-96243055D02*
X128125938Y-96100198D01*
X128125938Y-96100198D02*
X128125938Y-95671626D01*
X128125938Y-95671626D02*
X128197366Y-95528769D01*
X128197366Y-95528769D02*
X128268795Y-95457341D01*
X128268795Y-95457341D02*
X128411652Y-95385912D01*
X128411652Y-95385912D02*
X128697366Y-95385912D01*
X128697366Y-95385912D02*
X128840224Y-95457341D01*
X130054509Y-96314484D02*
X129911652Y-96385912D01*
X129911652Y-96385912D02*
X129625938Y-96385912D01*
X129625938Y-96385912D02*
X129483080Y-96314484D01*
X129483080Y-96314484D02*
X129411652Y-96171626D01*
X129411652Y-96171626D02*
X129411652Y-95600198D01*
X129411652Y-95600198D02*
X129483080Y-95457341D01*
X129483080Y-95457341D02*
X129625938Y-95385912D01*
X129625938Y-95385912D02*
X129911652Y-95385912D01*
X129911652Y-95385912D02*
X130054509Y-95457341D01*
X130054509Y-95457341D02*
X130125938Y-95600198D01*
X130125938Y-95600198D02*
X130125938Y-95743055D01*
X130125938Y-95743055D02*
X129411652Y-95885912D01*
X131411652Y-94885912D02*
X131125937Y-94885912D01*
X131125937Y-94885912D02*
X130983080Y-94957341D01*
X130983080Y-94957341D02*
X130911652Y-95028769D01*
X130911652Y-95028769D02*
X130768794Y-95243055D01*
X130768794Y-95243055D02*
X130697366Y-95528769D01*
X130697366Y-95528769D02*
X130697366Y-96100198D01*
X130697366Y-96100198D02*
X130768794Y-96243055D01*
X130768794Y-96243055D02*
X130840223Y-96314484D01*
X130840223Y-96314484D02*
X130983080Y-96385912D01*
X130983080Y-96385912D02*
X131268794Y-96385912D01*
X131268794Y-96385912D02*
X131411652Y-96314484D01*
X131411652Y-96314484D02*
X131483080Y-96243055D01*
X131483080Y-96243055D02*
X131554509Y-96100198D01*
X131554509Y-96100198D02*
X131554509Y-95743055D01*
X131554509Y-95743055D02*
X131483080Y-95600198D01*
X131483080Y-95600198D02*
X131411652Y-95528769D01*
X131411652Y-95528769D02*
X131268794Y-95457341D01*
X131268794Y-95457341D02*
X130983080Y-95457341D01*
X130983080Y-95457341D02*
X130840223Y-95528769D01*
X130840223Y-95528769D02*
X130768794Y-95600198D01*
X130768794Y-95600198D02*
X130697366Y-95743055D01*
X132840223Y-95385912D02*
X132840223Y-96385912D01*
X132483080Y-94814484D02*
X132125937Y-95885912D01*
X132125937Y-95885912D02*
X133054508Y-95885912D01*
X134268794Y-94885912D02*
X133983079Y-94885912D01*
X133983079Y-94885912D02*
X133840222Y-94957341D01*
X133840222Y-94957341D02*
X133768794Y-95028769D01*
X133768794Y-95028769D02*
X133625936Y-95243055D01*
X133625936Y-95243055D02*
X133554508Y-95528769D01*
X133554508Y-95528769D02*
X133554508Y-96100198D01*
X133554508Y-96100198D02*
X133625936Y-96243055D01*
X133625936Y-96243055D02*
X133697365Y-96314484D01*
X133697365Y-96314484D02*
X133840222Y-96385912D01*
X133840222Y-96385912D02*
X134125936Y-96385912D01*
X134125936Y-96385912D02*
X134268794Y-96314484D01*
X134268794Y-96314484D02*
X134340222Y-96243055D01*
X134340222Y-96243055D02*
X134411651Y-96100198D01*
X134411651Y-96100198D02*
X134411651Y-95743055D01*
X134411651Y-95743055D02*
X134340222Y-95600198D01*
X134340222Y-95600198D02*
X134268794Y-95528769D01*
X134268794Y-95528769D02*
X134125936Y-95457341D01*
X134125936Y-95457341D02*
X133840222Y-95457341D01*
X133840222Y-95457341D02*
X133697365Y-95528769D01*
X133697365Y-95528769D02*
X133625936Y-95600198D01*
X133625936Y-95600198D02*
X133554508Y-95743055D01*
X134911650Y-94885912D02*
X135840222Y-94885912D01*
X135840222Y-94885912D02*
X135340222Y-95457341D01*
X135340222Y-95457341D02*
X135554507Y-95457341D01*
X135554507Y-95457341D02*
X135697365Y-95528769D01*
X135697365Y-95528769D02*
X135768793Y-95600198D01*
X135768793Y-95600198D02*
X135840222Y-95743055D01*
X135840222Y-95743055D02*
X135840222Y-96100198D01*
X135840222Y-96100198D02*
X135768793Y-96243055D01*
X135768793Y-96243055D02*
X135697365Y-96314484D01*
X135697365Y-96314484D02*
X135554507Y-96385912D01*
X135554507Y-96385912D02*
X135125936Y-96385912D01*
X135125936Y-96385912D02*
X134983079Y-96314484D01*
X134983079Y-96314484D02*
X134911650Y-96243055D01*
X122054510Y-98015114D02*
X122268796Y-98086542D01*
X122268796Y-98086542D02*
X122340225Y-98157971D01*
X122340225Y-98157971D02*
X122411653Y-98300828D01*
X122411653Y-98300828D02*
X122411653Y-98515114D01*
X122411653Y-98515114D02*
X122340225Y-98657971D01*
X122340225Y-98657971D02*
X122268796Y-98729400D01*
X122268796Y-98729400D02*
X122125939Y-98800828D01*
X122125939Y-98800828D02*
X121554510Y-98800828D01*
X121554510Y-98800828D02*
X121554510Y-97300828D01*
X121554510Y-97300828D02*
X122054510Y-97300828D01*
X122054510Y-97300828D02*
X122197368Y-97372257D01*
X122197368Y-97372257D02*
X122268796Y-97443685D01*
X122268796Y-97443685D02*
X122340225Y-97586542D01*
X122340225Y-97586542D02*
X122340225Y-97729400D01*
X122340225Y-97729400D02*
X122268796Y-97872257D01*
X122268796Y-97872257D02*
X122197368Y-97943685D01*
X122197368Y-97943685D02*
X122054510Y-98015114D01*
X122054510Y-98015114D02*
X121554510Y-98015114D01*
X123697368Y-97800828D02*
X123697368Y-98800828D01*
X123054510Y-97800828D02*
X123054510Y-98586542D01*
X123054510Y-98586542D02*
X123125939Y-98729400D01*
X123125939Y-98729400D02*
X123268796Y-98800828D01*
X123268796Y-98800828D02*
X123483082Y-98800828D01*
X123483082Y-98800828D02*
X123625939Y-98729400D01*
X123625939Y-98729400D02*
X123697368Y-98657971D01*
X124411653Y-98800828D02*
X124411653Y-97800828D01*
X124411653Y-97300828D02*
X124340225Y-97372257D01*
X124340225Y-97372257D02*
X124411653Y-97443685D01*
X124411653Y-97443685D02*
X124483082Y-97372257D01*
X124483082Y-97372257D02*
X124411653Y-97300828D01*
X124411653Y-97300828D02*
X124411653Y-97443685D01*
X125340225Y-98800828D02*
X125197368Y-98729400D01*
X125197368Y-98729400D02*
X125125939Y-98586542D01*
X125125939Y-98586542D02*
X125125939Y-97300828D01*
X125697368Y-97800828D02*
X126268796Y-97800828D01*
X125911653Y-97300828D02*
X125911653Y-98586542D01*
X125911653Y-98586542D02*
X125983082Y-98729400D01*
X125983082Y-98729400D02*
X126125939Y-98800828D01*
X126125939Y-98800828D02*
X126268796Y-98800828D01*
X126768796Y-98657971D02*
X126840225Y-98729400D01*
X126840225Y-98729400D02*
X126768796Y-98800828D01*
X126768796Y-98800828D02*
X126697368Y-98729400D01*
X126697368Y-98729400D02*
X126768796Y-98657971D01*
X126768796Y-98657971D02*
X126768796Y-98800828D01*
X126768796Y-97872257D02*
X126840225Y-97943685D01*
X126840225Y-97943685D02*
X126768796Y-98015114D01*
X126768796Y-98015114D02*
X126697368Y-97943685D01*
X126697368Y-97943685D02*
X126768796Y-97872257D01*
X126768796Y-97872257D02*
X126768796Y-98015114D01*
X128554511Y-97443685D02*
X128625939Y-97372257D01*
X128625939Y-97372257D02*
X128768797Y-97300828D01*
X128768797Y-97300828D02*
X129125939Y-97300828D01*
X129125939Y-97300828D02*
X129268797Y-97372257D01*
X129268797Y-97372257D02*
X129340225Y-97443685D01*
X129340225Y-97443685D02*
X129411654Y-97586542D01*
X129411654Y-97586542D02*
X129411654Y-97729400D01*
X129411654Y-97729400D02*
X129340225Y-97943685D01*
X129340225Y-97943685D02*
X128483082Y-98800828D01*
X128483082Y-98800828D02*
X129411654Y-98800828D01*
X130340225Y-97300828D02*
X130483082Y-97300828D01*
X130483082Y-97300828D02*
X130625939Y-97372257D01*
X130625939Y-97372257D02*
X130697368Y-97443685D01*
X130697368Y-97443685D02*
X130768796Y-97586542D01*
X130768796Y-97586542D02*
X130840225Y-97872257D01*
X130840225Y-97872257D02*
X130840225Y-98229400D01*
X130840225Y-98229400D02*
X130768796Y-98515114D01*
X130768796Y-98515114D02*
X130697368Y-98657971D01*
X130697368Y-98657971D02*
X130625939Y-98729400D01*
X130625939Y-98729400D02*
X130483082Y-98800828D01*
X130483082Y-98800828D02*
X130340225Y-98800828D01*
X130340225Y-98800828D02*
X130197368Y-98729400D01*
X130197368Y-98729400D02*
X130125939Y-98657971D01*
X130125939Y-98657971D02*
X130054510Y-98515114D01*
X130054510Y-98515114D02*
X129983082Y-98229400D01*
X129983082Y-98229400D02*
X129983082Y-97872257D01*
X129983082Y-97872257D02*
X130054510Y-97586542D01*
X130054510Y-97586542D02*
X130125939Y-97443685D01*
X130125939Y-97443685D02*
X130197368Y-97372257D01*
X130197368Y-97372257D02*
X130340225Y-97300828D01*
X131411653Y-97443685D02*
X131483081Y-97372257D01*
X131483081Y-97372257D02*
X131625939Y-97300828D01*
X131625939Y-97300828D02*
X131983081Y-97300828D01*
X131983081Y-97300828D02*
X132125939Y-97372257D01*
X132125939Y-97372257D02*
X132197367Y-97443685D01*
X132197367Y-97443685D02*
X132268796Y-97586542D01*
X132268796Y-97586542D02*
X132268796Y-97729400D01*
X132268796Y-97729400D02*
X132197367Y-97943685D01*
X132197367Y-97943685D02*
X131340224Y-98800828D01*
X131340224Y-98800828D02*
X132268796Y-98800828D01*
X133554510Y-97300828D02*
X133268795Y-97300828D01*
X133268795Y-97300828D02*
X133125938Y-97372257D01*
X133125938Y-97372257D02*
X133054510Y-97443685D01*
X133054510Y-97443685D02*
X132911652Y-97657971D01*
X132911652Y-97657971D02*
X132840224Y-97943685D01*
X132840224Y-97943685D02*
X132840224Y-98515114D01*
X132840224Y-98515114D02*
X132911652Y-98657971D01*
X132911652Y-98657971D02*
X132983081Y-98729400D01*
X132983081Y-98729400D02*
X133125938Y-98800828D01*
X133125938Y-98800828D02*
X133411652Y-98800828D01*
X133411652Y-98800828D02*
X133554510Y-98729400D01*
X133554510Y-98729400D02*
X133625938Y-98657971D01*
X133625938Y-98657971D02*
X133697367Y-98515114D01*
X133697367Y-98515114D02*
X133697367Y-98157971D01*
X133697367Y-98157971D02*
X133625938Y-98015114D01*
X133625938Y-98015114D02*
X133554510Y-97943685D01*
X133554510Y-97943685D02*
X133411652Y-97872257D01*
X133411652Y-97872257D02*
X133125938Y-97872257D01*
X133125938Y-97872257D02*
X132983081Y-97943685D01*
X132983081Y-97943685D02*
X132911652Y-98015114D01*
X132911652Y-98015114D02*
X132840224Y-98157971D01*
X134340223Y-98229400D02*
X135483081Y-98229400D01*
X136483081Y-97300828D02*
X136625938Y-97300828D01*
X136625938Y-97300828D02*
X136768795Y-97372257D01*
X136768795Y-97372257D02*
X136840224Y-97443685D01*
X136840224Y-97443685D02*
X136911652Y-97586542D01*
X136911652Y-97586542D02*
X136983081Y-97872257D01*
X136983081Y-97872257D02*
X136983081Y-98229400D01*
X136983081Y-98229400D02*
X136911652Y-98515114D01*
X136911652Y-98515114D02*
X136840224Y-98657971D01*
X136840224Y-98657971D02*
X136768795Y-98729400D01*
X136768795Y-98729400D02*
X136625938Y-98800828D01*
X136625938Y-98800828D02*
X136483081Y-98800828D01*
X136483081Y-98800828D02*
X136340224Y-98729400D01*
X136340224Y-98729400D02*
X136268795Y-98657971D01*
X136268795Y-98657971D02*
X136197366Y-98515114D01*
X136197366Y-98515114D02*
X136125938Y-98229400D01*
X136125938Y-98229400D02*
X136125938Y-97872257D01*
X136125938Y-97872257D02*
X136197366Y-97586542D01*
X136197366Y-97586542D02*
X136268795Y-97443685D01*
X136268795Y-97443685D02*
X136340224Y-97372257D01*
X136340224Y-97372257D02*
X136483081Y-97300828D01*
X138268795Y-97800828D02*
X138268795Y-98800828D01*
X137911652Y-97229400D02*
X137554509Y-98300828D01*
X137554509Y-98300828D02*
X138483080Y-98300828D01*
X139054508Y-98229400D02*
X140197366Y-98229400D01*
X141197366Y-97300828D02*
X141340223Y-97300828D01*
X141340223Y-97300828D02*
X141483080Y-97372257D01*
X141483080Y-97372257D02*
X141554509Y-97443685D01*
X141554509Y-97443685D02*
X141625937Y-97586542D01*
X141625937Y-97586542D02*
X141697366Y-97872257D01*
X141697366Y-97872257D02*
X141697366Y-98229400D01*
X141697366Y-98229400D02*
X141625937Y-98515114D01*
X141625937Y-98515114D02*
X141554509Y-98657971D01*
X141554509Y-98657971D02*
X141483080Y-98729400D01*
X141483080Y-98729400D02*
X141340223Y-98800828D01*
X141340223Y-98800828D02*
X141197366Y-98800828D01*
X141197366Y-98800828D02*
X141054509Y-98729400D01*
X141054509Y-98729400D02*
X140983080Y-98657971D01*
X140983080Y-98657971D02*
X140911651Y-98515114D01*
X140911651Y-98515114D02*
X140840223Y-98229400D01*
X140840223Y-98229400D02*
X140840223Y-97872257D01*
X140840223Y-97872257D02*
X140911651Y-97586542D01*
X140911651Y-97586542D02*
X140983080Y-97443685D01*
X140983080Y-97443685D02*
X141054509Y-97372257D01*
X141054509Y-97372257D02*
X141197366Y-97300828D01*
X142197365Y-97300828D02*
X143125937Y-97300828D01*
X143125937Y-97300828D02*
X142625937Y-97872257D01*
X142625937Y-97872257D02*
X142840222Y-97872257D01*
X142840222Y-97872257D02*
X142983080Y-97943685D01*
X142983080Y-97943685D02*
X143054508Y-98015114D01*
X143054508Y-98015114D02*
X143125937Y-98157971D01*
X143125937Y-98157971D02*
X143125937Y-98515114D01*
X143125937Y-98515114D02*
X143054508Y-98657971D01*
X143054508Y-98657971D02*
X142983080Y-98729400D01*
X142983080Y-98729400D02*
X142840222Y-98800828D01*
X142840222Y-98800828D02*
X142411651Y-98800828D01*
X142411651Y-98800828D02*
X142268794Y-98729400D01*
X142268794Y-98729400D02*
X142197365Y-98657971D01*
D11*
%TO.C,D1*%
X114510000Y-59270000D02*
X114510000Y-60730000D01*
X114510000Y-60730000D02*
X116800000Y-60730000D01*
X116800000Y-59270000D02*
X114510000Y-59270000D01*
%TD*%
M02*
