%TF.GenerationSoftware,KiCad,Pcbnew,9.0.7+1*%
%TF.CreationDate,2026-04-03T13:13:17+00:00*%
%TF.ProjectId,pcb_1,7063625f-312e-46b6-9963-61645f706362,rev?*%
%TF.SameCoordinates,Original*%
%TF.FileFunction,Other,User*%
%FSLAX46Y46*%
G04 Gerber Fmt 4.6, Leading zero omitted, Abs format (unit mm)*
G04 Created by KiCad (PCBNEW 9.0.7+1) date 2026-04-03 13:13:17*
%MOMM*%
%LPD*%
G01*
G04 APERTURE LIST*
%ADD10C,0.050000*%
G04 APERTURE END LIST*
D10*
%TO.C,R1*%
X118440000Y-69540000D02*
X120340000Y-69540000D01*
X118440000Y-72900000D02*
X118440000Y-69540000D01*
X120340000Y-69540000D02*
X120340000Y-72900000D01*
X120340000Y-72900000D02*
X118440000Y-72900000D01*
%TO.C,R2*%
X116190000Y-69560000D02*
X118090000Y-69560000D01*
X116190000Y-72920000D02*
X116190000Y-69560000D01*
X118090000Y-69560000D02*
X118090000Y-72920000D01*
X118090000Y-72920000D02*
X116190000Y-72920000D01*
%TO.C,J1*%
X112250000Y-76000000D02*
X121750000Y-76000000D01*
X112250000Y-84250000D02*
X112250000Y-76000000D01*
X121750000Y-76000000D02*
X121750000Y-84250000D01*
X121750000Y-84250000D02*
X112250000Y-84250000D01*
%TO.C,D1*%
X114520000Y-59270000D02*
X117480000Y-59270000D01*
X114520000Y-60730000D02*
X114520000Y-59270000D01*
X117480000Y-59270000D02*
X117480000Y-60730000D01*
X117480000Y-60730000D02*
X114520000Y-60730000D01*
%TO.C,R3*%
X114110000Y-69600000D02*
X116010000Y-69600000D01*
X114110000Y-72960000D02*
X114110000Y-69600000D01*
X116010000Y-69600000D02*
X116010000Y-72960000D01*
X116010000Y-72960000D02*
X114110000Y-72960000D01*
%TD*%
M02*
