%TF.GenerationSoftware,KiCad,Pcbnew,9.0.7+1*%
%TF.CreationDate,2026-04-03T13:13:17+00:00*%
%TF.ProjectId,pcb_1,7063625f-312e-46b6-9963-61645f706362,rev?*%
%TF.SameCoordinates,Original*%
%TF.FileFunction,Copper,L1,Top*%
%TF.FilePolarity,Positive*%
%FSLAX46Y46*%
G04 Gerber Fmt 4.6, Leading zero omitted, Abs format (unit mm)*
G04 Created by KiCad (PCBNEW 9.0.7+1) date 2026-04-03 13:13:17*
%MOMM*%
%LPD*%
G01*
G04 APERTURE LIST*
G04 Aperture macros list*
%AMRoundRect*
0 Rectangle with rounded corners*
0 $1 Rounding radius*
0 $2 $3 $4 $5 $6 $7 $8 $9 X,Y pos of 4 corners*
0 Add a 4 corners polygon primitive as box body*
4,1,4,$2,$3,$4,$5,$6,$7,$8,$9,$2,$3,0*
0 Add four circle primitives for the rounded corners*
1,1,$1+$1,$2,$3*
1,1,$1+$1,$4,$5*
1,1,$1+$1,$6,$7*
1,1,$1+$1,$8,$9*
0 Add four rect primitives between the rounded corners*
20,1,$1+$1,$2,$3,$4,$5,0*
20,1,$1+$1,$4,$5,$6,$7,0*
20,1,$1+$1,$6,$7,$8,$9,0*
20,1,$1+$1,$8,$9,$2,$3,0*%
G04 Aperture macros list end*
%TA.AperFunction,SMDPad,CuDef*%
%ADD10RoundRect,0.248780X0.451220X-0.261220X0.451220X0.261220X-0.451220X0.261220X-0.451220X-0.261220X0*%
%TD*%
%TA.AperFunction,SMDPad,CuDef*%
%ADD11R,0.300000X1.400000*%
%TD*%
%TA.AperFunction,SMDPad,CuDef*%
%ADD12R,0.500000X1.400000*%
%TD*%
%TA.AperFunction,ComponentPad*%
%ADD13O,1.300000X2.300000*%
%TD*%
%TA.AperFunction,ComponentPad*%
%ADD14O,1.300000X2.100000*%
%TD*%
%TA.AperFunction,ComponentPad*%
%ADD15C,0.500000*%
%TD*%
%TA.AperFunction,SMDPad,CuDef*%
%ADD16RoundRect,0.500000X-2.000000X-1.000000X2.000000X-1.000000X2.000000X1.000000X-2.000000X1.000000X0*%
%TD*%
%TA.AperFunction,SMDPad,CuDef*%
%ADD17RoundRect,0.220000X-0.220000X-0.255000X0.220000X-0.255000X0.220000X0.255000X-0.220000X0.255000X0*%
%TD*%
%TA.AperFunction,ViaPad*%
%ADD18C,0.600000*%
%TD*%
%TA.AperFunction,Conductor*%
%ADD19C,0.200000*%
%TD*%
G04 APERTURE END LIST*
D10*
%TO.P,R1,1*%
%TO.N,VBUS*%
X119390000Y-72130000D03*
%TO.P,R1,2*%
%TO.N,Net-(D1-Pad2)*%
X119390000Y-70310000D03*
%TD*%
%TO.P,R2,1*%
%TO.N,Net-(J1-CC2)*%
X117140000Y-72150000D03*
%TO.P,R2,2*%
%TO.N,GND*%
X117140000Y-70330000D03*
%TD*%
D11*
%TO.P,J1,A5,CC1*%
%TO.N,Net-(J1-CC1)*%
X115750000Y-76500000D03*
%TO.P,J1,A6,D+*%
%TO.N,unconnected-(J1-D+-PadA6)*%
X116750000Y-76500000D03*
%TO.P,J1,A7,D-*%
%TO.N,unconnected-(J1-D--PadA7)*%
X117250000Y-76500000D03*
%TO.P,J1,A8,SBU1*%
%TO.N,unconnected-(J1-SBU1-PadA8)*%
X118250000Y-76500000D03*
D12*
%TO.P,J1,A9B4,VBUS*%
%TO.N,VBUS*%
X119400000Y-76500000D03*
%TO.P,J1,A12B1,GND*%
%TO.N,GND*%
X120200000Y-76500000D03*
D11*
%TO.P,J1,B5,CC2*%
%TO.N,Net-(J1-CC2)*%
X118750000Y-76500000D03*
%TO.P,J1,B6,D+*%
%TO.N,unconnected-(J1-D+-PadB6)*%
X117750000Y-76500000D03*
%TO.P,J1,B7,D-*%
%TO.N,unconnected-(J1-D--PadB7)*%
X116250000Y-76500000D03*
%TO.P,J1,B8,SBU2*%
%TO.N,unconnected-(J1-SBU2-PadB8)*%
X115250000Y-76500000D03*
D12*
%TO.P,J1,B9A4,VBUS*%
%TO.N,VBUS*%
X114600000Y-76500000D03*
%TO.P,J1,B12A1,GND*%
%TO.N,GND*%
X113800000Y-76500000D03*
D13*
%TO.P,J1,S1,SHIELD*%
X112670000Y-77180000D03*
D14*
X112670000Y-81380000D03*
D15*
X115000000Y-80000000D03*
X115000000Y-82000000D03*
D16*
X117000000Y-81000000D03*
D15*
X119000000Y-80000000D03*
X119000000Y-82000000D03*
D13*
X121330000Y-77180000D03*
D14*
X121330000Y-81380000D03*
%TD*%
D17*
%TO.P,D1,1*%
%TO.N,GND*%
X115210000Y-60000000D03*
%TO.P,D1,2*%
%TO.N,Net-(D1-Pad2)*%
X116790000Y-60000000D03*
%TD*%
D10*
%TO.P,R3,1*%
%TO.N,Net-(J1-CC1)*%
X115060000Y-72190000D03*
%TO.P,R3,2*%
%TO.N,GND*%
X115060000Y-70370000D03*
%TD*%
D18*
%TO.N,GND*%
X115000000Y-69000000D03*
X117000000Y-69000000D03*
%TD*%
D19*
%TO.N,Net-(D1-Pad2)*%
X119390000Y-70310000D02*
X119390000Y-66390000D01*
X118790000Y-65790000D02*
X117580000Y-65790000D01*
X119390000Y-66390000D02*
X118790000Y-65790000D01*
X116790000Y-65000000D02*
X116790000Y-60000000D01*
X117580000Y-65790000D02*
X116790000Y-65000000D01*
%TO.N,GND*%
X117140000Y-70330000D02*
X117140000Y-69140000D01*
X114630000Y-64580000D02*
X115210000Y-64000000D01*
X115060000Y-70370000D02*
X115060000Y-69060000D01*
X115210000Y-64000000D02*
X115210000Y-60000000D01*
X113800000Y-65290000D02*
X114510000Y-64580000D01*
X113800000Y-76500000D02*
X113800000Y-65290000D01*
X114510000Y-64580000D02*
X114630000Y-64580000D01*
X115060000Y-69060000D02*
X115000000Y-69000000D01*
X117140000Y-69140000D02*
X117000000Y-69000000D01*
%TO.N,VBUS*%
X114761000Y-76661000D02*
X114761000Y-77761000D01*
X119400000Y-76500000D02*
X119400000Y-72140000D01*
X119201000Y-77501000D02*
X119201000Y-76699000D01*
X119201000Y-76699000D02*
X119400000Y-76500000D01*
X115000000Y-78000000D02*
X118702000Y-78000000D01*
X114600000Y-76500000D02*
X114761000Y-76661000D01*
X119400000Y-72140000D02*
X119390000Y-72130000D01*
X114761000Y-77761000D02*
X115000000Y-78000000D01*
X118702000Y-78000000D02*
X119201000Y-77501000D01*
%TO.N,Net-(J1-CC2)*%
X118750000Y-75540000D02*
X117140000Y-73930000D01*
X117140000Y-73930000D02*
X117140000Y-72150000D01*
X118750000Y-76500000D02*
X118750000Y-75540000D01*
%TO.N,Net-(J1-CC1)*%
X115750000Y-76500000D02*
X115750000Y-73780000D01*
X115060000Y-73090000D02*
X115060000Y-72190000D01*
X115750000Y-73780000D02*
X115060000Y-73090000D01*
%TD*%
%TA.AperFunction,Conductor*%
%TO.N,GND*%
G36*
X149442539Y-50520185D02*
G01*
X149488294Y-50572989D01*
X149499500Y-50624500D01*
X149499500Y-99375500D01*
X149479815Y-99442539D01*
X149427011Y-99488294D01*
X149375500Y-99499500D01*
X100624500Y-99499500D01*
X100557461Y-99479815D01*
X100511706Y-99427011D01*
X100500500Y-99375500D01*
X100500500Y-80889493D01*
X111520000Y-80889493D01*
X111520000Y-81130000D01*
X112420000Y-81130000D01*
X112420000Y-81630000D01*
X111520000Y-81630000D01*
X111520000Y-81870506D01*
X111548317Y-82049293D01*
X111604251Y-82221444D01*
X111604252Y-82221447D01*
X111686434Y-82382734D01*
X111792823Y-82529169D01*
X111920830Y-82657176D01*
X112067265Y-82763565D01*
X112228552Y-82845747D01*
X112228555Y-82845748D01*
X112400699Y-82901680D01*
X112400712Y-82901683D01*
X112420000Y-82904738D01*
X112420000Y-81829728D01*
X112458060Y-81921614D01*
X112528386Y-81991940D01*
X112620272Y-82030000D01*
X112719728Y-82030000D01*
X112811614Y-81991940D01*
X112881940Y-81921614D01*
X112920000Y-81829728D01*
X112920000Y-82904737D01*
X112939287Y-82901683D01*
X112939300Y-82901680D01*
X113111444Y-82845748D01*
X113111447Y-82845747D01*
X113272734Y-82763565D01*
X113419169Y-82657176D01*
X113547176Y-82529169D01*
X113653565Y-82382734D01*
X113721198Y-82250000D01*
X114291759Y-82250000D01*
X114335357Y-82355254D01*
X114335362Y-82355264D01*
X114417436Y-82478096D01*
X114417439Y-82478100D01*
X114521899Y-82582560D01*
X114521907Y-82582566D01*
X114644739Y-82664640D01*
X114644743Y-82664642D01*
X114749999Y-82708240D01*
X114750000Y-82708240D01*
X115250000Y-82708240D01*
X115355256Y-82664642D01*
X115355260Y-82664640D01*
X115478092Y-82582566D01*
X115478100Y-82582560D01*
X115582560Y-82478100D01*
X115582563Y-82478096D01*
X115664637Y-82355264D01*
X115664642Y-82355254D01*
X115708241Y-82250000D01*
X118291759Y-82250000D01*
X118335357Y-82355254D01*
X118335362Y-82355264D01*
X118417436Y-82478096D01*
X118417439Y-82478100D01*
X118521899Y-82582560D01*
X118521907Y-82582566D01*
X118644739Y-82664640D01*
X118644743Y-82664642D01*
X118749999Y-82708240D01*
X118750000Y-82708240D01*
X119250000Y-82708240D01*
X119355256Y-82664642D01*
X119355260Y-82664640D01*
X119478092Y-82582566D01*
X119478100Y-82582560D01*
X119582560Y-82478100D01*
X119582563Y-82478096D01*
X119664637Y-82355264D01*
X119664642Y-82355254D01*
X119708241Y-82250000D01*
X119250000Y-82250000D01*
X119250000Y-82708240D01*
X118750000Y-82708240D01*
X118750000Y-82250000D01*
X118291759Y-82250000D01*
X115708241Y-82250000D01*
X115250000Y-82250000D01*
X115250000Y-82708240D01*
X114750000Y-82708240D01*
X114750000Y-82250000D01*
X114291759Y-82250000D01*
X113721198Y-82250000D01*
X113735747Y-82221447D01*
X113735748Y-82221444D01*
X113743398Y-82197901D01*
X113791682Y-82049293D01*
X113804215Y-81970163D01*
X114850000Y-81970163D01*
X114850000Y-82029837D01*
X114872836Y-82084968D01*
X114915032Y-82127164D01*
X114970163Y-82150000D01*
X115029837Y-82150000D01*
X115084968Y-82127164D01*
X115127164Y-82084968D01*
X115150000Y-82029837D01*
X115150000Y-81970163D01*
X118850000Y-81970163D01*
X118850000Y-82029837D01*
X118872836Y-82084968D01*
X118915032Y-82127164D01*
X118970163Y-82150000D01*
X119029837Y-82150000D01*
X119084968Y-82127164D01*
X119127164Y-82084968D01*
X119150000Y-82029837D01*
X119150000Y-81970163D01*
X119127164Y-81915032D01*
X119084968Y-81872836D01*
X119029837Y-81850000D01*
X118970163Y-81850000D01*
X118915032Y-81872836D01*
X118872836Y-81915032D01*
X118850000Y-81970163D01*
X115150000Y-81970163D01*
X115127164Y-81915032D01*
X115084968Y-81872836D01*
X115029837Y-81850000D01*
X114970163Y-81850000D01*
X114915032Y-81872836D01*
X114872836Y-81915032D01*
X114850000Y-81970163D01*
X113804215Y-81970163D01*
X113820000Y-81870506D01*
X113820000Y-81749999D01*
X114291759Y-81749999D01*
X114291759Y-81750000D01*
X114750000Y-81750000D01*
X115250000Y-81750000D01*
X115708241Y-81750000D01*
X115708240Y-81749999D01*
X118291759Y-81749999D01*
X118291759Y-81750000D01*
X118750000Y-81750000D01*
X119250000Y-81750000D01*
X119708241Y-81750000D01*
X119708240Y-81749999D01*
X119664642Y-81644745D01*
X119664637Y-81644734D01*
X119582563Y-81521903D01*
X119582560Y-81521899D01*
X119478100Y-81417439D01*
X119478096Y-81417436D01*
X119355264Y-81335362D01*
X119355254Y-81335357D01*
X119250000Y-81291759D01*
X119250000Y-81750000D01*
X118750000Y-81750000D01*
X118750000Y-81291759D01*
X118749999Y-81291759D01*
X118644745Y-81335357D01*
X118644735Y-81335362D01*
X118521903Y-81417436D01*
X118521899Y-81417439D01*
X118417439Y-81521899D01*
X118417436Y-81521903D01*
X118335362Y-81644735D01*
X118335357Y-81644745D01*
X118291759Y-81749999D01*
X115708240Y-81749999D01*
X115664642Y-81644745D01*
X115664637Y-81644735D01*
X115582563Y-81521903D01*
X115582560Y-81521899D01*
X115478100Y-81417439D01*
X115478096Y-81417436D01*
X115355264Y-81335362D01*
X115355254Y-81335357D01*
X115250000Y-81291759D01*
X115250000Y-81750000D01*
X114750000Y-81750000D01*
X114750000Y-81291759D01*
X114749999Y-81291759D01*
X114644745Y-81335357D01*
X114644735Y-81335362D01*
X114521903Y-81417436D01*
X114521899Y-81417439D01*
X114417439Y-81521899D01*
X114417436Y-81521903D01*
X114335362Y-81644735D01*
X114335357Y-81644745D01*
X114291759Y-81749999D01*
X113820000Y-81749999D01*
X113820000Y-81630000D01*
X112920000Y-81630000D01*
X112920000Y-81130000D01*
X113820000Y-81130000D01*
X113820000Y-80889493D01*
X120180000Y-80889493D01*
X120180000Y-81130000D01*
X121080000Y-81130000D01*
X121080000Y-81630000D01*
X120180000Y-81630000D01*
X120180000Y-81870506D01*
X120208317Y-82049293D01*
X120264251Y-82221444D01*
X120264252Y-82221447D01*
X120346434Y-82382734D01*
X120452823Y-82529169D01*
X120580830Y-82657176D01*
X120727265Y-82763565D01*
X120888552Y-82845747D01*
X120888555Y-82845748D01*
X121060699Y-82901680D01*
X121060712Y-82901683D01*
X121080000Y-82904738D01*
X121080000Y-81829728D01*
X121118060Y-81921614D01*
X121188386Y-81991940D01*
X121280272Y-82030000D01*
X121379728Y-82030000D01*
X121471614Y-81991940D01*
X121541940Y-81921614D01*
X121580000Y-81829728D01*
X121580000Y-82904737D01*
X121599287Y-82901683D01*
X121599300Y-82901680D01*
X121771444Y-82845748D01*
X121771447Y-82845747D01*
X121932734Y-82763565D01*
X122079169Y-82657176D01*
X122207176Y-82529169D01*
X122313565Y-82382734D01*
X122395747Y-82221447D01*
X122395748Y-82221444D01*
X122451682Y-82049293D01*
X122480000Y-81870506D01*
X122480000Y-81630000D01*
X121580000Y-81630000D01*
X121580000Y-81130000D01*
X122480000Y-81130000D01*
X122480000Y-80889493D01*
X122451682Y-80710706D01*
X122395748Y-80538555D01*
X122395747Y-80538552D01*
X122313565Y-80377265D01*
X122207176Y-80230830D01*
X122079169Y-80102823D01*
X121932734Y-79996434D01*
X121771447Y-79914252D01*
X121771441Y-79914250D01*
X121599295Y-79858318D01*
X121599285Y-79858315D01*
X121580000Y-79855260D01*
X121580000Y-80930272D01*
X121541940Y-80838386D01*
X121471614Y-80768060D01*
X121379728Y-80730000D01*
X121280272Y-80730000D01*
X121188386Y-80768060D01*
X121118060Y-80838386D01*
X121080000Y-80930272D01*
X121080000Y-79855260D01*
X121060714Y-79858315D01*
X121060704Y-79858318D01*
X120888558Y-79914250D01*
X120888552Y-79914252D01*
X120727265Y-79996434D01*
X120580830Y-80102823D01*
X120452823Y-80230830D01*
X120346434Y-80377265D01*
X120264252Y-80538552D01*
X120264251Y-80538555D01*
X120208317Y-80710706D01*
X120180000Y-80889493D01*
X113820000Y-80889493D01*
X113791682Y-80710706D01*
X113735748Y-80538555D01*
X113735747Y-80538552D01*
X113653565Y-80377265D01*
X113604046Y-80309107D01*
X113604043Y-80309104D01*
X113561102Y-80250000D01*
X114291759Y-80250000D01*
X114335357Y-80355254D01*
X114335362Y-80355264D01*
X114417436Y-80478096D01*
X114417439Y-80478100D01*
X114521899Y-80582560D01*
X114521907Y-80582566D01*
X114644739Y-80664640D01*
X114644743Y-80664642D01*
X114750000Y-80708240D01*
X115250000Y-80708240D01*
X115355256Y-80664642D01*
X115355260Y-80664640D01*
X115478092Y-80582566D01*
X115478100Y-80582560D01*
X115582560Y-80478100D01*
X115582563Y-80478096D01*
X115664637Y-80355264D01*
X115664642Y-80355254D01*
X115708241Y-80250000D01*
X118291759Y-80250000D01*
X118335357Y-80355254D01*
X118335362Y-80355264D01*
X118417436Y-80478096D01*
X118417439Y-80478100D01*
X118521899Y-80582560D01*
X118521907Y-80582566D01*
X118644739Y-80664640D01*
X118644743Y-80664642D01*
X118750000Y-80708240D01*
X119250000Y-80708240D01*
X119355256Y-80664642D01*
X119355260Y-80664640D01*
X119478092Y-80582566D01*
X119478100Y-80582560D01*
X119582560Y-80478100D01*
X119582563Y-80478096D01*
X119664637Y-80355264D01*
X119664642Y-80355254D01*
X119708241Y-80250000D01*
X119250000Y-80250000D01*
X119250000Y-80708240D01*
X118750000Y-80708240D01*
X118750000Y-80250000D01*
X118291759Y-80250000D01*
X115708241Y-80250000D01*
X115250000Y-80250000D01*
X115250000Y-80708240D01*
X114750000Y-80708240D01*
X114750000Y-80250000D01*
X114291759Y-80250000D01*
X113561102Y-80250000D01*
X113547170Y-80230824D01*
X113419169Y-80102823D01*
X113272734Y-79996434D01*
X113221176Y-79970163D01*
X114850000Y-79970163D01*
X114850000Y-80029837D01*
X114872836Y-80084968D01*
X114915032Y-80127164D01*
X114970163Y-80150000D01*
X115029837Y-80150000D01*
X115084968Y-80127164D01*
X115127164Y-80084968D01*
X115150000Y-80029837D01*
X115150000Y-79970163D01*
X118850000Y-79970163D01*
X118850000Y-80029837D01*
X118872836Y-80084968D01*
X118915032Y-80127164D01*
X118970163Y-80150000D01*
X119029837Y-80150000D01*
X119084968Y-80127164D01*
X119127164Y-80084968D01*
X119150000Y-80029837D01*
X119150000Y-79970163D01*
X119127164Y-79915032D01*
X119084968Y-79872836D01*
X119029837Y-79850000D01*
X118970163Y-79850000D01*
X118915032Y-79872836D01*
X118872836Y-79915032D01*
X118850000Y-79970163D01*
X115150000Y-79970163D01*
X115127164Y-79915032D01*
X115084968Y-79872836D01*
X115029837Y-79850000D01*
X114970163Y-79850000D01*
X114915032Y-79872836D01*
X114872836Y-79915032D01*
X114850000Y-79970163D01*
X113221176Y-79970163D01*
X113111447Y-79914252D01*
X113111441Y-79914250D01*
X113011296Y-79881712D01*
X112939295Y-79858318D01*
X112939285Y-79858315D01*
X112920000Y-79855260D01*
X112920000Y-80930272D01*
X112881940Y-80838386D01*
X112811614Y-80768060D01*
X112719728Y-80730000D01*
X112620272Y-80730000D01*
X112528386Y-80768060D01*
X112458060Y-80838386D01*
X112420000Y-80930272D01*
X112420000Y-79855260D01*
X112400714Y-79858315D01*
X112400704Y-79858318D01*
X112228558Y-79914250D01*
X112228552Y-79914252D01*
X112067265Y-79996434D01*
X111920830Y-80102823D01*
X111792823Y-80230830D01*
X111686434Y-80377265D01*
X111604252Y-80538552D01*
X111604251Y-80538555D01*
X111548317Y-80710706D01*
X111520000Y-80889493D01*
X100500500Y-80889493D01*
X100500500Y-79749999D01*
X114291759Y-79749999D01*
X114291759Y-79750000D01*
X114750000Y-79750000D01*
X115250000Y-79750000D01*
X115708241Y-79750000D01*
X115708240Y-79749999D01*
X118291759Y-79749999D01*
X118291759Y-79750000D01*
X118750000Y-79750000D01*
X119250000Y-79750000D01*
X119708241Y-79750000D01*
X119708240Y-79749999D01*
X119664642Y-79644745D01*
X119664637Y-79644735D01*
X119582563Y-79521903D01*
X119582560Y-79521899D01*
X119478100Y-79417439D01*
X119478096Y-79417436D01*
X119355264Y-79335362D01*
X119355254Y-79335357D01*
X119250000Y-79291759D01*
X119250000Y-79750000D01*
X118750000Y-79750000D01*
X118750000Y-79291759D01*
X118749999Y-79291759D01*
X118644745Y-79335357D01*
X118644735Y-79335362D01*
X118521903Y-79417436D01*
X118521899Y-79417439D01*
X118417439Y-79521899D01*
X118417436Y-79521903D01*
X118335362Y-79644735D01*
X118335357Y-79644745D01*
X118291759Y-79749999D01*
X115708240Y-79749999D01*
X115664642Y-79644745D01*
X115664637Y-79644735D01*
X115582563Y-79521903D01*
X115582560Y-79521899D01*
X115478100Y-79417439D01*
X115478096Y-79417436D01*
X115355264Y-79335362D01*
X115355254Y-79335357D01*
X115250000Y-79291759D01*
X115250000Y-79750000D01*
X114750000Y-79750000D01*
X114750000Y-79291759D01*
X114749999Y-79291759D01*
X114644745Y-79335357D01*
X114644735Y-79335362D01*
X114521903Y-79417436D01*
X114521899Y-79417439D01*
X114417439Y-79521899D01*
X114417436Y-79521903D01*
X114335362Y-79644735D01*
X114335357Y-79644745D01*
X114291759Y-79749999D01*
X100500500Y-79749999D01*
X100500500Y-76589493D01*
X111520000Y-76589493D01*
X111520000Y-76930000D01*
X112420000Y-76930000D01*
X112420000Y-77430000D01*
X111520000Y-77430000D01*
X111520000Y-77770506D01*
X111548317Y-77949293D01*
X111604251Y-78121444D01*
X111604252Y-78121447D01*
X111686434Y-78282734D01*
X111792823Y-78429169D01*
X111920830Y-78557176D01*
X112067265Y-78663565D01*
X112228552Y-78745747D01*
X112228555Y-78745748D01*
X112400699Y-78801680D01*
X112400712Y-78801683D01*
X112420000Y-78804738D01*
X112420000Y-77779728D01*
X112458060Y-77871614D01*
X112528386Y-77941940D01*
X112620272Y-77980000D01*
X112719728Y-77980000D01*
X112811614Y-77941940D01*
X112881940Y-77871614D01*
X112920000Y-77779728D01*
X112920000Y-78804737D01*
X112939287Y-78801683D01*
X112939300Y-78801680D01*
X113111444Y-78745748D01*
X113111447Y-78745747D01*
X113272734Y-78663565D01*
X113419169Y-78557176D01*
X113547176Y-78429169D01*
X113653567Y-78282732D01*
X113677156Y-78236437D01*
X113725130Y-78185641D01*
X113792951Y-78168845D01*
X113849640Y-78185343D01*
X113897515Y-78212984D01*
X114037525Y-78250500D01*
X114037528Y-78250500D01*
X114182471Y-78250500D01*
X114182475Y-78250500D01*
X114285880Y-78222792D01*
X114297877Y-78223077D01*
X114309124Y-78218883D01*
X114332158Y-78223893D01*
X114355725Y-78224455D01*
X114367372Y-78231554D01*
X114377397Y-78233735D01*
X114405651Y-78254886D01*
X114515139Y-78364374D01*
X114515149Y-78364385D01*
X114519479Y-78368715D01*
X114519480Y-78368716D01*
X114631284Y-78480520D01*
X114718095Y-78530639D01*
X114718097Y-78530641D01*
X114756151Y-78552611D01*
X114768215Y-78559577D01*
X114920943Y-78600501D01*
X114920946Y-78600501D01*
X115086653Y-78600501D01*
X115086669Y-78600500D01*
X118615331Y-78600500D01*
X118615347Y-78600501D01*
X118622943Y-78600501D01*
X118781054Y-78600501D01*
X118781057Y-78600501D01*
X118933785Y-78559577D01*
X118983904Y-78530639D01*
X119070716Y-78480520D01*
X119182520Y-78368716D01*
X119182521Y-78368714D01*
X119395162Y-78156071D01*
X119456485Y-78122587D01*
X119526177Y-78127571D01*
X119544282Y-78137594D01*
X119544946Y-78136445D01*
X119677511Y-78212982D01*
X119677512Y-78212982D01*
X119677515Y-78212984D01*
X119817525Y-78250500D01*
X119817528Y-78250500D01*
X119962472Y-78250500D01*
X119962475Y-78250500D01*
X120102485Y-78212984D01*
X120150357Y-78185344D01*
X120218256Y-78168871D01*
X120284284Y-78191722D01*
X120322842Y-78236435D01*
X120346432Y-78282732D01*
X120452823Y-78429169D01*
X120580830Y-78557176D01*
X120727265Y-78663565D01*
X120888552Y-78745747D01*
X120888555Y-78745748D01*
X121060699Y-78801680D01*
X121060712Y-78801683D01*
X121080000Y-78804738D01*
X121080000Y-77779728D01*
X121118060Y-77871614D01*
X121188386Y-77941940D01*
X121280272Y-77980000D01*
X121379728Y-77980000D01*
X121471614Y-77941940D01*
X121541940Y-77871614D01*
X121580000Y-77779728D01*
X121580000Y-78804737D01*
X121599287Y-78801683D01*
X121599300Y-78801680D01*
X121771444Y-78745748D01*
X121771447Y-78745747D01*
X121932734Y-78663565D01*
X122079169Y-78557176D01*
X122207176Y-78429169D01*
X122313565Y-78282734D01*
X122395747Y-78121447D01*
X122395748Y-78121444D01*
X122451682Y-77949293D01*
X122480000Y-77770506D01*
X122480000Y-77430000D01*
X121580000Y-77430000D01*
X121580000Y-76930000D01*
X122480000Y-76930000D01*
X122480000Y-76589493D01*
X122451682Y-76410706D01*
X122395748Y-76238555D01*
X122395747Y-76238552D01*
X122313565Y-76077265D01*
X122207176Y-75930830D01*
X122079169Y-75802823D01*
X121932734Y-75696434D01*
X121771447Y-75614252D01*
X121771441Y-75614250D01*
X121599295Y-75558318D01*
X121599285Y-75558315D01*
X121580000Y-75555260D01*
X121580000Y-76580272D01*
X121541940Y-76488386D01*
X121471614Y-76418060D01*
X121379728Y-76380000D01*
X121280272Y-76380000D01*
X121188386Y-76418060D01*
X121118060Y-76488386D01*
X121080000Y-76580272D01*
X121080000Y-75601860D01*
X120950563Y-75578679D01*
X120945998Y-75576401D01*
X120940899Y-75576547D01*
X120915048Y-75560958D01*
X120888044Y-75547484D01*
X120885435Y-75543101D01*
X120881066Y-75540466D01*
X120873156Y-75530932D01*
X120807186Y-75442809D01*
X120692093Y-75356649D01*
X120692086Y-75356645D01*
X120557379Y-75306403D01*
X120557372Y-75306401D01*
X120497844Y-75300000D01*
X120450000Y-75300000D01*
X120450000Y-76376000D01*
X120447449Y-76384685D01*
X120448738Y-76393647D01*
X120437759Y-76417687D01*
X120430315Y-76443039D01*
X120423474Y-76448966D01*
X120419713Y-76457203D01*
X120397478Y-76471492D01*
X120377511Y-76488794D01*
X120366996Y-76491081D01*
X120360935Y-76494977D01*
X120326000Y-76500000D01*
X120274499Y-76500000D01*
X120207460Y-76480315D01*
X120161705Y-76427511D01*
X120150499Y-76376000D01*
X120150499Y-75752129D01*
X120150498Y-75752123D01*
X120150497Y-75752116D01*
X120144091Y-75692517D01*
X120114899Y-75614250D01*
X120093797Y-75557671D01*
X120093795Y-75557668D01*
X120091992Y-75555260D01*
X120072706Y-75529497D01*
X120025233Y-75466080D01*
X120000816Y-75400615D01*
X120000500Y-75391769D01*
X120000500Y-73217326D01*
X120020185Y-73150287D01*
X120072989Y-73104532D01*
X120085488Y-73099622D01*
X120160035Y-73074921D01*
X120309114Y-72982968D01*
X120432968Y-72859114D01*
X120524921Y-72710035D01*
X120580016Y-72543769D01*
X120590500Y-72441150D01*
X120590500Y-71818850D01*
X120580016Y-71716231D01*
X120524921Y-71549965D01*
X120432968Y-71400886D01*
X120339763Y-71307681D01*
X120306278Y-71246358D01*
X120311262Y-71176666D01*
X120339763Y-71132319D01*
X120373285Y-71098797D01*
X120432968Y-71039114D01*
X120524921Y-70890035D01*
X120580016Y-70723769D01*
X120590500Y-70621150D01*
X120590500Y-69998850D01*
X120580016Y-69896231D01*
X120524921Y-69729965D01*
X120432968Y-69580886D01*
X120309114Y-69457032D01*
X120160035Y-69365079D01*
X120075494Y-69337065D01*
X120018051Y-69297293D01*
X119991228Y-69232778D01*
X119990500Y-69219360D01*
X119990500Y-66310945D01*
X119990500Y-66310943D01*
X119949577Y-66158216D01*
X119949577Y-66158215D01*
X119949577Y-66158214D01*
X119920639Y-66108095D01*
X119920637Y-66108092D01*
X119870520Y-66021284D01*
X119758716Y-65909480D01*
X119758715Y-65909479D01*
X119754385Y-65905149D01*
X119754374Y-65905139D01*
X119277590Y-65428355D01*
X119277588Y-65428352D01*
X119158717Y-65309481D01*
X119158716Y-65309480D01*
X119071904Y-65259360D01*
X119071904Y-65259359D01*
X119071900Y-65259358D01*
X119021785Y-65230423D01*
X118869057Y-65189499D01*
X118710943Y-65189499D01*
X118703347Y-65189499D01*
X118703331Y-65189500D01*
X117880098Y-65189500D01*
X117813059Y-65169815D01*
X117792417Y-65153181D01*
X117426819Y-64787583D01*
X117393334Y-64726260D01*
X117390500Y-64699902D01*
X117390500Y-60936045D01*
X117410185Y-60869006D01*
X117449405Y-60830505D01*
X117459922Y-60824019D01*
X117579019Y-60704922D01*
X117667440Y-60561569D01*
X117720419Y-60401690D01*
X117730500Y-60303012D01*
X117730500Y-59696988D01*
X117720419Y-59598310D01*
X117667440Y-59438431D01*
X117579019Y-59295078D01*
X117459922Y-59175981D01*
X117316569Y-59087560D01*
X117316568Y-59087559D01*
X117316567Y-59087559D01*
X117262646Y-59069691D01*
X117156690Y-59034581D01*
X117156688Y-59034580D01*
X117058019Y-59024500D01*
X117058012Y-59024500D01*
X116521988Y-59024500D01*
X116521980Y-59024500D01*
X116423311Y-59034580D01*
X116423310Y-59034581D01*
X116370332Y-59052136D01*
X116263432Y-59087559D01*
X116120076Y-59175982D01*
X116087326Y-59208732D01*
X116026002Y-59242217D01*
X115956311Y-59237231D01*
X115911965Y-59208731D01*
X115879610Y-59176376D01*
X115879606Y-59176373D01*
X115736365Y-59088020D01*
X115736354Y-59088015D01*
X115576583Y-59035073D01*
X115576586Y-59035073D01*
X115477989Y-59025000D01*
X115460000Y-59025000D01*
X115460000Y-60975000D01*
X115477977Y-60975000D01*
X115477989Y-60974999D01*
X115576584Y-60964926D01*
X115736354Y-60911984D01*
X115736365Y-60911979D01*
X115879606Y-60823626D01*
X115879609Y-60823624D01*
X115911964Y-60791269D01*
X115915989Y-60789071D01*
X115918470Y-60785213D01*
X115946369Y-60772481D01*
X115973286Y-60757783D01*
X115977861Y-60758110D01*
X115982034Y-60756206D01*
X116012393Y-60760579D01*
X116042978Y-60762767D01*
X116047915Y-60765697D01*
X116051190Y-60766169D01*
X116065752Y-60776283D01*
X116080876Y-60785259D01*
X116084199Y-60788140D01*
X116120078Y-60824019D01*
X116139147Y-60835781D01*
X116146730Y-60842355D01*
X116160401Y-60863641D01*
X116177319Y-60882449D01*
X116179969Y-60894109D01*
X116184487Y-60901144D01*
X116184483Y-60913971D01*
X116189500Y-60936045D01*
X116189500Y-64913330D01*
X116189499Y-64913348D01*
X116189499Y-65079054D01*
X116189498Y-65079054D01*
X116230423Y-65231785D01*
X116259358Y-65281900D01*
X116259359Y-65281904D01*
X116259360Y-65281904D01*
X116309479Y-65368714D01*
X116309481Y-65368717D01*
X116428349Y-65487585D01*
X116428354Y-65487589D01*
X117211284Y-66270520D01*
X117211286Y-66270521D01*
X117211290Y-66270524D01*
X117348209Y-66349573D01*
X117348216Y-66349577D01*
X117500943Y-66390501D01*
X117500945Y-66390501D01*
X117666654Y-66390501D01*
X117666670Y-66390500D01*
X118489903Y-66390500D01*
X118519343Y-66399144D01*
X118549330Y-66405668D01*
X118554345Y-66409422D01*
X118556942Y-66410185D01*
X118577584Y-66426819D01*
X118753181Y-66602416D01*
X118786666Y-66663739D01*
X118789500Y-66690097D01*
X118789500Y-69219360D01*
X118769815Y-69286399D01*
X118717011Y-69332154D01*
X118704510Y-69337063D01*
X118658563Y-69352288D01*
X118619967Y-69365078D01*
X118619962Y-69365080D01*
X118470884Y-69457033D01*
X118342327Y-69585591D01*
X118281004Y-69619076D01*
X118211312Y-69614092D01*
X118166965Y-69585591D01*
X118058801Y-69477427D01*
X118058797Y-69477424D01*
X117909822Y-69385534D01*
X117909819Y-69385533D01*
X117743669Y-69330478D01*
X117641116Y-69320000D01*
X117390000Y-69320000D01*
X117390000Y-70206000D01*
X117370315Y-70273039D01*
X117317511Y-70318794D01*
X117266000Y-70330000D01*
X117140000Y-70330000D01*
X117140000Y-70456000D01*
X117120315Y-70523039D01*
X117067511Y-70568794D01*
X117016000Y-70580000D01*
X116390000Y-70580000D01*
X116386319Y-70583681D01*
X116324996Y-70617166D01*
X116298638Y-70620000D01*
X113860001Y-70620000D01*
X113860001Y-70681117D01*
X113870478Y-70783669D01*
X113925533Y-70949819D01*
X113925534Y-70949822D01*
X114017424Y-71098797D01*
X114017427Y-71098801D01*
X114110591Y-71191965D01*
X114144076Y-71253288D01*
X114139092Y-71322980D01*
X114110591Y-71367327D01*
X114017033Y-71460884D01*
X113925080Y-71609962D01*
X113925078Y-71609967D01*
X113869984Y-71776229D01*
X113869983Y-71776236D01*
X113859500Y-71878842D01*
X113859500Y-72501157D01*
X113863854Y-72543769D01*
X113869984Y-72603769D01*
X113925079Y-72770035D01*
X114017032Y-72919114D01*
X114140886Y-73042968D01*
X114289965Y-73134921D01*
X114355811Y-73156740D01*
X114402514Y-73172216D01*
X114406259Y-73174809D01*
X114410788Y-73175289D01*
X114434718Y-73194513D01*
X114459959Y-73211989D01*
X114462700Y-73216992D01*
X114465258Y-73219047D01*
X114473268Y-73236281D01*
X114481105Y-73250583D01*
X114482306Y-73254175D01*
X114500423Y-73321785D01*
X114504877Y-73329499D01*
X114511124Y-73340319D01*
X114511125Y-73340322D01*
X114579475Y-73458709D01*
X114579481Y-73458717D01*
X114698349Y-73577585D01*
X114698355Y-73577590D01*
X115113181Y-73992416D01*
X115146666Y-74053739D01*
X115149500Y-74080097D01*
X115149500Y-75177648D01*
X115148853Y-75179850D01*
X115149421Y-75182076D01*
X115139056Y-75213213D01*
X115129815Y-75244687D01*
X115128080Y-75246190D01*
X115127355Y-75248369D01*
X115101798Y-75268963D01*
X115077011Y-75290442D01*
X115074181Y-75291218D01*
X115072951Y-75292210D01*
X115038753Y-75300938D01*
X114988249Y-75306367D01*
X114961742Y-75306367D01*
X114957483Y-75305909D01*
X114897873Y-75299500D01*
X114897864Y-75299500D01*
X114302129Y-75299500D01*
X114302123Y-75299501D01*
X114242515Y-75305909D01*
X114234971Y-75307692D01*
X114234675Y-75306439D01*
X114172926Y-75310855D01*
X114159357Y-75306870D01*
X114157372Y-75306401D01*
X114097844Y-75300000D01*
X114050000Y-75300000D01*
X114050000Y-75337305D01*
X114030315Y-75404344D01*
X114000315Y-75436569D01*
X113992453Y-75442454D01*
X113992452Y-75442455D01*
X113906206Y-75557664D01*
X113906202Y-75557671D01*
X113855908Y-75692517D01*
X113849501Y-75752116D01*
X113849501Y-75752123D01*
X113849500Y-75752135D01*
X113849500Y-76376000D01*
X113846949Y-76384685D01*
X113848238Y-76393647D01*
X113837259Y-76417687D01*
X113829815Y-76443039D01*
X113822974Y-76448966D01*
X113819213Y-76457203D01*
X113796978Y-76471492D01*
X113777011Y-76488794D01*
X113766496Y-76491081D01*
X113760435Y-76494977D01*
X113725500Y-76500000D01*
X113674000Y-76500000D01*
X113606961Y-76480315D01*
X113561206Y-76427511D01*
X113550000Y-76376000D01*
X113550000Y-75300000D01*
X113502155Y-75300000D01*
X113442627Y-75306401D01*
X113442620Y-75306403D01*
X113307913Y-75356645D01*
X113307906Y-75356649D01*
X113192812Y-75442809D01*
X113126842Y-75530933D01*
X113103917Y-75548093D01*
X113082938Y-75567576D01*
X113073880Y-75570577D01*
X113070908Y-75572803D01*
X113066136Y-75573144D01*
X113049436Y-75578679D01*
X112920000Y-75601860D01*
X112920000Y-76580272D01*
X112881940Y-76488386D01*
X112811614Y-76418060D01*
X112719728Y-76380000D01*
X112620272Y-76380000D01*
X112528386Y-76418060D01*
X112458060Y-76488386D01*
X112420000Y-76580272D01*
X112420000Y-75555260D01*
X112400714Y-75558315D01*
X112400704Y-75558318D01*
X112228558Y-75614250D01*
X112228552Y-75614252D01*
X112067265Y-75696434D01*
X111920830Y-75802823D01*
X111792823Y-75930830D01*
X111686434Y-76077265D01*
X111604252Y-76238552D01*
X111604251Y-76238555D01*
X111548317Y-76410706D01*
X111520000Y-76589493D01*
X100500500Y-76589493D01*
X100500500Y-70058883D01*
X113860000Y-70058883D01*
X113860000Y-70120000D01*
X114810000Y-70120000D01*
X114810000Y-69360000D01*
X115310000Y-69360000D01*
X115310000Y-70120000D01*
X115810000Y-70120000D01*
X115813681Y-70116319D01*
X115875004Y-70082834D01*
X115901362Y-70080000D01*
X116890000Y-70080000D01*
X116890000Y-69320000D01*
X116638897Y-69320000D01*
X116638882Y-69320001D01*
X116536330Y-69330478D01*
X116370180Y-69385533D01*
X116370177Y-69385534D01*
X116221202Y-69477424D01*
X116167679Y-69530946D01*
X116106355Y-69564430D01*
X116036663Y-69559444D01*
X115992318Y-69530944D01*
X115978801Y-69517427D01*
X115978797Y-69517424D01*
X115829822Y-69425534D01*
X115829819Y-69425533D01*
X115663669Y-69370478D01*
X115561116Y-69360000D01*
X115310000Y-69360000D01*
X114810000Y-69360000D01*
X114558897Y-69360000D01*
X114558882Y-69360001D01*
X114456330Y-69370478D01*
X114290180Y-69425533D01*
X114290177Y-69425534D01*
X114141202Y-69517424D01*
X114141198Y-69517427D01*
X114017427Y-69641198D01*
X114017424Y-69641202D01*
X113925534Y-69790177D01*
X113925533Y-69790180D01*
X113870478Y-69956329D01*
X113870478Y-69956331D01*
X113860000Y-70058883D01*
X100500500Y-70058883D01*
X100500500Y-60302989D01*
X114270000Y-60302989D01*
X114280073Y-60401584D01*
X114333015Y-60561354D01*
X114333020Y-60561365D01*
X114421373Y-60704606D01*
X114421376Y-60704610D01*
X114540389Y-60823623D01*
X114540393Y-60823626D01*
X114683634Y-60911979D01*
X114683645Y-60911984D01*
X114843416Y-60964926D01*
X114843413Y-60964926D01*
X114942010Y-60974999D01*
X114942023Y-60975000D01*
X114960000Y-60975000D01*
X114960000Y-60250000D01*
X114270000Y-60250000D01*
X114270000Y-60302989D01*
X100500500Y-60302989D01*
X100500500Y-59697010D01*
X114270000Y-59697010D01*
X114270000Y-59750000D01*
X114960000Y-59750000D01*
X114960000Y-59025000D01*
X114942010Y-59025000D01*
X114843415Y-59035073D01*
X114683645Y-59088015D01*
X114683634Y-59088020D01*
X114540393Y-59176373D01*
X114540389Y-59176376D01*
X114421376Y-59295389D01*
X114421373Y-59295393D01*
X114333020Y-59438634D01*
X114333015Y-59438645D01*
X114280073Y-59598415D01*
X114270000Y-59697010D01*
X100500500Y-59697010D01*
X100500500Y-50624500D01*
X100520185Y-50557461D01*
X100572989Y-50511706D01*
X100624500Y-50500500D01*
X149375500Y-50500500D01*
X149442539Y-50520185D01*
G37*
%TD.AperFunction*%
%TD*%
M02*
